<svg xmlns="http://www.w3.org/2000/svg">
  <symbol id="icon" fill="none" viewBox="0 0 16 16"><path fill="currentColor" d="M5.464 13.392a.54.54 0 0 1 .656-.224c.297.108.606.191.925.247a.54.54 0 0 1 .456.52c0 .294-.25.526-.54.48a6.457 6.457 0 0 1-1.27-.339.473.473 0 0 1-.227-.684Zm4.416-.224a.54.54 0 0 1 .655.224.472.472 0 0 1-.228.684c-.405.154-.83.268-1.268.338a.472.472 0 0 1-.538-.478c0-.26.199-.476.455-.52a5.46 5.46 0 0 0 .924-.248Zm-6.772-1.767a.54.54 0 0 1 .68.133c.205.245.432.47.677.676a.54.54 0 0 1 .133.68.474.474 0 0 1-.709.144 6.535 6.535 0 0 1-.925-.925.473.473 0 0 1 .144-.708Zm9.104.133a.54.54 0 0 1 .678-.133c.254.147.332.48.146.708-.277.339-.588.65-.927.926a.473.473 0 0 1-.708-.145.54.54 0 0 1 .134-.68c.245-.205.471-.431.677-.676ZM2.064 8.5c.26 0 .476.2.52.456.056.318.139.627.247.923a.54.54 0 0 1-.224.656.473.473 0 0 1-.685-.228 6.454 6.454 0 0 1-.337-1.268.473.473 0 0 1 .48-.539Zm11.872 0c.293 0 .526.25.48.54-.07.438-.186.862-.34 1.267a.473.473 0 0 1-.685.228.54.54 0 0 1-.222-.656c.108-.297.192-.606.248-.924a.539.539 0 0 1 .52-.455ZM1.923 5.692a.472.472 0 0 1 .684-.229.54.54 0 0 1 .224.656 5.459 5.459 0 0 0-.247.925.539.539 0 0 1-.52.456.473.473 0 0 1-.48-.539c.07-.44.185-.864.339-1.27Zm11.468-.229a.473.473 0 0 1 .686.229c.154.405.268.83.339 1.27a.473.473 0 0 1-.48.538.539.539 0 0 1-.52-.455 5.453 5.453 0 0 0-.247-.926.54.54 0 0 1 .222-.656ZM3.89 2.964a.474.474 0 0 1 .71.145.54.54 0 0 1-.134.68 5.53 5.53 0 0 0-.676.675.54.54 0 0 1-.68.134.473.473 0 0 1-.145-.708c.276-.339.587-.65.925-.926Zm7.512.145a.473.473 0 0 1 .708-.145c.339.277.65.587.926.926.186.227.11.56-.145.708a.54.54 0 0 1-.68-.134 5.53 5.53 0 0 0-.675-.676.54.54 0 0 1-.134-.68Zm-4.44-1.525a.473.473 0 0 1 .54.48c0 .26-.2.475-.456.52a5.458 5.458 0 0 0-.925.246.54.54 0 0 1-.656-.222.473.473 0 0 1 .228-.686 6.47 6.47 0 0 1 1.27-.338Zm2.078.001c.439.07.863.184 1.268.337a.473.473 0 0 1 .228.686.54.54 0 0 1-.655.222 5.457 5.457 0 0 0-.924-.246.538.538 0 0 1-.455-.52c0-.292.249-.525.538-.479Z"/></symbol>
  <symbol id="icon-large" fill="none" viewBox="0 0 24 24"><path fill="currentColor" d="M9.226 20.003a.526.526 0 0 1 .63-.296c.381.105.773.184 1.174.232.264.032.47.25.47.515a.48.48 0 0 1-.528.486 8.966 8.966 0 0 1-1.443-.286.48.48 0 0 1-.303-.651Zm5.548 0a.48.48 0 0 1-.303.65c-.466.134-.948.23-1.442.287a.48.48 0 0 1-.529-.486c0-.265.207-.483.47-.515a7.955 7.955 0 0 0 1.173-.232c.255-.071.53.05.63.296ZM6.376 18.33a.526.526 0 0 1 .696-.032 8 8 0 0 0 .994.666c.23.13.338.411.236.656a.48.48 0 0 1-.675.246 9.012 9.012 0 0 1-1.221-.819.48.48 0 0 1-.03-.717Zm11.248 0a.48.48 0 0 1-.03.717c-.383.305-.791.58-1.222.82a.48.48 0 0 1-.675-.247.527.527 0 0 1 .237-.656c.348-.197.68-.42.994-.666a.526.526 0 0 1 .696.032ZM4.378 15.697a.527.527 0 0 1 .656.236c.198.349.42.68.666.994a.526.526 0 0 1-.031.697.48.48 0 0 1-.718-.03 9.013 9.013 0 0 1-.82-1.222.48.48 0 0 1 .247-.675Zm15.244 0a.48.48 0 0 1 .246.675c-.24.43-.514.838-.82 1.221a.48.48 0 0 1-.717.03.526.526 0 0 1-.032-.696c.246-.313.47-.645.667-.994.13-.23.41-.338.656-.236ZM3.546 12.5c.265 0 .483.207.515.47.048.4.126.792.232 1.172a.527.527 0 0 1-.296.631.48.48 0 0 1-.651-.303 8.953 8.953 0 0 1-.286-1.442.48.48 0 0 1 .486-.528Zm16.91 0a.48.48 0 0 1 .485.528 8.944 8.944 0 0 1-.287 1.442.48.48 0 0 1-.65.303.527.527 0 0 1-.297-.63c.106-.38.184-.772.233-1.173a.527.527 0 0 1 .515-.47ZM3.995 9.226a.527.527 0 0 1 .297.63 7.84 7.84 0 0 0-.232 1.174.527.527 0 0 1-.515.47.48.48 0 0 1-.486-.529c.056-.494.152-.976.286-1.443a.48.48 0 0 1 .65-.303Zm16.007 0a.48.48 0 0 1 .651.302c.134.467.23.949.287 1.443a.48.48 0 0 1-.486.529.527.527 0 0 1-.515-.47 7.945 7.945 0 0 0-.233-1.174.527.527 0 0 1 .296-.63ZM5.67 6.374a.526.526 0 0 1 .031.696 8.013 8.013 0 0 0-.666.994.527.527 0 0 1-.656.237.48.48 0 0 1-.246-.675c.24-.43.514-.839.819-1.222a.48.48 0 0 1 .718-.03Zm12.662 0a.48.48 0 0 1 .718.03c.305.383.579.792.819 1.222a.48.48 0 0 1-.246.675.527.527 0 0 1-.656-.237 8.023 8.023 0 0 0-.667-.994.526.526 0 0 1 .032-.696ZM8.302 4.378a.527.527 0 0 1-.236.655c-.349.198-.68.421-.994.667a.526.526 0 0 1-.696-.032.48.48 0 0 1 .03-.718 9.097 9.097 0 0 1 1.221-.819.48.48 0 0 1 .675.247Zm7.395 0a.48.48 0 0 1 .675-.247c.43.24.839.515 1.222.82a.48.48 0 0 1 .03.717.526.526 0 0 1-.696.032 8.01 8.01 0 0 0-.994-.667.527.527 0 0 1-.237-.655ZM11.5 3.544a.527.527 0 0 1-.47.515 7.962 7.962 0 0 0-1.173.233.526.526 0 0 1-.63-.296.48.48 0 0 1 .302-.651c.466-.133.948-.23 1.443-.287a.48.48 0 0 1 .528.486Zm1 0a.48.48 0 0 1 .529-.486c.494.057.976.154 1.442.287a.48.48 0 0 1 .303.651.526.526 0 0 1-.631.296 7.958 7.958 0 0 0-1.172-.233.527.527 0 0 1-.47-.515Z"/></symbol>
  <use href="#icon"/>
</svg>
