<svg xmlns="http://www.w3.org/2000/svg" viewBox="0 0 16 16" enable-background="new 0 0 16 16"><g transform="translate(0-.5)"><path d="m7.6.5c-.2 0-.4.1-.5.2-1.1.6-2 1.5-2.6 2.6l.5-.2c.1-.3.3-.5.4-.7.5-.7 1.1-1.3 1.8-1.6.4-.2.5-.3.4-.3m1.1 5.3l1.6-4.6 4 2.9-2 .7.2.4c1 2.5.9 5.2-.3 7.6-.3.7-.8 1.3-1.3 1.7-.8.8-1.9 1.1-3.1 1-.4-.1-.9-.2-1.3-.4-.5-.3-.9-.6-1.3-1l1-.7c.3.3.6.5.9.7.3.2.7.2 1 .2.6 0 1.2-.2 1.6-.7 1.8-1.7 2.3-5 1.3-7.7l-.3-.7-2 .6m-5.1.8c-.2.1-.4.2-.5.3s-.1.3-.1.5c0 .5 0 .9 0 1.4.2.1.5.2.7.3v-1.2l-.1-1.3"/><path d="m7.8 3.5c-1.3 0-2.6.2-3.9.7-2 .7-3.3 1.7-3.7 2.9-.4 1.1-.1 2.3.8 3 .8.7 1.7 1.1 2.7 1.3l.8.2v2c0 0 4-2.6 4-2.6s-4-3-4-3v2h-.2c-.1 0-.5-.1-.7-.2-1.6-.5-2.4-1.4-2-2.3.4-.9 1.3-1.6 2.2-1.9 1.2-.6 2.5-1 3.9-1.1h.6c.1-.3.2-.6.3-.9-.3 0-.6-.1-.8-.1m5.6 1.6l-.3.1c0 .1.1.3.1.4.4.2.8.4 1.2.6.7.4 1.2 1 1.5 1.8-.1-.5-.3-.9-.5-1.2-.5-.8-1.2-1.3-2-1.7"/></g></svg>