<?xml version="1.0" encoding="utf-8"?>
<!-- Generator: Adobe Illustrator 23.0.0, SVG Export Plug-In . SVG Version: 6.00 Build 0)  -->
<svg version="1.1" id="Calque_1" xmlns="http://www.w3.org/2000/svg" xmlns:xlink="http://www.w3.org/1999/xlink" x="0px" y="0px"
	 viewBox="0 0 16 16" style="enable-background:new 0 0 16 16;" xml:space="preserve">
<g>
	<path d="M13,3.4938L6.5,0L0,3.4938l6.5,3.4938L13,3.4938z"/>
	<polygon points="6.5,8.21 7,7.94 7,9.24 6.5,9.51 0,6.01 1.22,5.36 	"/>
	<polygon points="13,6.01 11.16,7 8.74,7 11.78,5.36 	"/>
	<polygon points="7,10.37 7,11.67 6.5,11.94 0,8.45 1.22,7.8 6.5,10.64 	"/>
</g>
<g transform="translate(-1-1)">
	<path d="M9,13.5714h3.4286V17H9V13.5714z"/>
	<path d="M9,9v3.4286h3.4286V9H9z M11.8571,11.8571H9.5714V9.5714h2.2857V11.8571z"/>
	<path d="M13.5714,9v3.4286H17V9H13.5714 M16.4286,11.8571h-2.2857V9.5714h2.2857V11.8571"/>
	<path d="M13.5714,13.5714V17H17v-3.4286H13.5714z M16.4286,16.4286h-2.2857v-2.2857h2.2857V16.4286z"/>
</g>
</svg>
