<?xml version="1.0" encoding="utf-8"?>
<!-- Generator: Adobe Illustrator 23.0.0, SVG Export Plug-In . SVG Version: 6.00 Build 0)  -->
<svg version="1.1" id="Calque_1" xmlns="http://www.w3.org/2000/svg" xmlns:xlink="http://www.w3.org/1999/xlink" x="0px" y="0px"
	 viewBox="0 0 16 16" style="enable-background:new 0 0 16 16;" xml:space="preserve">
<path d="M12.8,3.5102L6.4,0L0,3.5102l6.4,3.5102L12.8,3.5102z M6.4,8.2449L1.2,5.3878L0,6.0408L6.4,9.551l6.4-3.5102l-1.2-0.6531
	L6.4,8.2449z M1.2,7.84L6.23,10.6c-0.24,0.3-0.46,0.62-0.63,0.96L0,8.49L1.2,7.84z M7.4131,15.1504l6.7118-6.7118l0.8496,0.8496
	L8.2627,16L7.4131,15.1504z M8.0099,14.1417l0.6608-0.6608c-0.515-0.2944-0.9326-0.7329-1.2015-1.2616
	c0.8072-1.2845,2.2079-2.0752,3.7247-2.1027c0.2419-0.0099,0.484,0.0103,0.7209,0.0601l0.781-0.781
	c-0.4911-0.1226-0.9957-0.1832-1.5019-0.1802c-2.047-0.0085-3.9167,1.1601-4.8061,3.0038
	C6.7581,12.9864,7.316,13.6476,8.0099,14.1417z M14.438,10.2968l-0.6608,0.6608c0.4832,0.3332,0.8923,0.7627,1.2015,1.2616
	c-0.8088,1.2828-2.2085,2.073-3.7247,2.1027c-0.2631-0.0194-0.5242-0.0595-0.781-0.1202l-0.781,0.781
	c1.2744,0.3811,2.6451,0.2741,3.8449-0.3004c1.0691-0.5284,1.9347-1.394,2.4631-2.4631
	C15.6321,11.4682,15.0979,10.8108,14.438,10.2968z"/>
</svg>
