<svg viewBox="0 0 16 16" xmlns="http://www.w3.org/2000/svg"><path d="m7 1.18v6.94l-.5-.25-.5.25-4.48 2.2-.04.02-.48-.24v-.51l5-2.46v-5.95l.5-.21z" opacity=".33"/><path d="m8 12.5714h3.4286v3.4286h-3.4286zm0-4.5714v3.4286h3.4286v-3.4286zm2.8571 2.8571h-2.2857v-2.2857h2.2857zm1.7143-2.8571v3.4286h3.4286v-3.4286zm2.8572 2.8571h-2.2857v-2.2857h2.2857zm-2.8572 1.7143v3.4286h3.4286v-3.4286zm2.8572 2.8572h-2.2857v-2.2857h2.2857zm-8.9286-15.4286-6.5 3.2v7.47l6.5 3.2.5-.25v-6.77l5-2.46v2.61h1v-3.8zm-.5 12.52-4.48-2.2-.52-.26v-5.67l5 2.46zm1-6.74-.5.25-.5-.25-4.64-2.28 4.64-2.28.5-.25.5.25 4.64 2.28z"/></svg>