<svg id="Calque_1" data-name="Calque 1" xmlns="http://www.w3.org/2000/svg" viewBox="0 0 16 16"><defs><style>.cls-1{opacity:0.5;isolation:isolate;}</style></defs><path class="cls-1" d="M3,8H13v8H3Z"/><rect x="3" y="2" width="10" height="4"/><rect x="3" width="2" height="1"/><polygon points="0 2 1 2 1 1 2 1 2 0 0 0 0 2"/><rect x="15" y="3" width="1" height="2"/><rect x="3" y="7" width="2" height="1"/><polygon points="1 6 0 6 0 8 2 8 2 7 1 7 1 6"/><rect y="3" width="1" height="2"/><rect x="7" width="2" height="1"/><rect x="11" y="7" width="2" height="1"/><rect x="7" y="7" width="2" height="1"/><polygon points="14 0 14 1 15 1 15 2 16 2 16 0 14 0"/><rect x="11" width="2" height="1"/><polygon points="15 7 14 7 14 8 16 8 16 6 15 6 15 7"/></svg>