<svg viewBox="0 0 16 16" xmlns="http://www.w3.org/2000/svg"><path d="M8 3v7.9a4.012 4.012 0 004-4 6.75 6.75 0 00-.2-1.4l.1.1A6.894 6.894 0 0114.3 8a8.39 8.39 0 01-2.3 2.3 6.894 6.894 0 01-3.9 1.2c-.033 0-.067-.007-.1-.007V13a8.907 8.907 0 008-5 8.907 8.907 0 00-8-5z" opacity="0.33"/>
<path d="M8 0a1 1 0 00-1 1v2.071A8.916 8.916 0 000 8a8.916 8.916 0 007 4.929V15a1 1 0 002 0V1a1 1 0 00-1-1zM6.5 4.9a1.554 1.554 0 01.5.087v2.815a1.407 1.407 0 01-.5.098A1.538 1.538 0 015 6.4a1.538 1.538 0 011.5-1.5zm-2.3 5.4A6.973 6.973 0 011.7 8a6.894 6.894 0 012.4-2.4c.1 0 .1-.1.2-.1A3.194 3.194 0 004 6.9a4.005 4.005 0 003 3.857v.653a6.375 6.375 0 01-2.8-1.11z"/></svg>
