<svg xmlns="http://www.w3.org/2000/svg">
  <symbol id="icon" fill="none" viewBox="0 0 16 16"><path fill="currentColor" d="M5.463 13.391a.54.54 0 0 1 .656-.222c.298.108.607.19.925.247a.54.54 0 0 1 .456.52c0 .293-.25.526-.539.48a6.448 6.448 0 0 1-1.27-.34.473.473 0 0 1-.228-.685Zm4.416-.223a.54.54 0 0 1 .656.223.473.473 0 0 1-.227.686c-.405.153-.83.268-1.269.338a.473.473 0 0 1-.539-.48c0-.26.2-.474.455-.52.318-.055.627-.14.924-.247ZM3.11 11.4a.54.54 0 0 1 .68.134c.205.245.431.471.676.677a.54.54 0 0 1 .134.68.473.473 0 0 1-.708.144 6.532 6.532 0 0 1-.927-.927.473.473 0 0 1 .146-.708Zm9.103.133a.54.54 0 0 1 .679-.134c.254.147.33.48.144.708a6.54 6.54 0 0 1-.927.928.474.474 0 0 1-.708-.146.54.54 0 0 1 .134-.678c.245-.206.472-.433.678-.678ZM8 4a.5.5 0 0 1 .5.5v.542A3.001 3.001 0 0 1 10.957 7.5h.543a.5.5 0 0 1 0 1h-.543A3 3 0 0 1 8.5 10.958v.542a.5.5 0 0 1-1 0v-.542A3.001 3.001 0 0 1 5.042 8.5H4.5a.5.5 0 0 1 0-1h.542A3.002 3.002 0 0 1 7.5 5.042V4.5A.5.5 0 0 1 8 4ZM2.064 8.5c.26 0 .475.2.52.456.056.318.14.628.247.925a.54.54 0 0 1-.223.655.473.473 0 0 1-.686-.228 6.455 6.455 0 0 1-.338-1.268.473.473 0 0 1 .48-.54Zm11.873 0c.292 0 .524.25.478.539a6.4 6.4 0 0 1-.338 1.268.474.474 0 0 1-.686.229.54.54 0 0 1-.223-.656c.109-.297.192-.606.248-.924a.54.54 0 0 1 .52-.455Zm-7.871 0A1.999 1.999 0 0 0 7.5 9.934V8.5H6.066Zm2.434 0v1.434A2 2 0 0 0 9.935 8.5H8.5ZM1.922 5.69a.473.473 0 0 1 .686-.227.54.54 0 0 1 .223.656 5.459 5.459 0 0 0-.247.925.54.54 0 0 1-.52.456.473.473 0 0 1-.48-.54c.07-.439.185-.864.338-1.27Zm11.47-.227a.473.473 0 0 1 .685.227c.154.406.268.831.338 1.27a.473.473 0 0 1-.478.54.54.54 0 0 1-.52-.456 5.452 5.452 0 0 0-.249-.925.54.54 0 0 1 .224-.656ZM8.5 7.5h1.435A2 2 0 0 0 8.5 6.065V7.5Zm-1-1.435A1.999 1.999 0 0 0 6.066 7.5H7.5V6.065Zm3.9-2.956a.473.473 0 0 1 .709-.145c.339.277.65.587.927.926a.474.474 0 0 1-.145.71.54.54 0 0 1-.68-.134 5.53 5.53 0 0 0-.677-.678.54.54 0 0 1-.133-.679Zm-7.51-.145a.473.473 0 0 1 .709.145.539.539 0 0 1-.134.679 5.533 5.533 0 0 0-.678.677.54.54 0 0 1-.678.133.473.473 0 0 1-.146-.707c.277-.339.589-.65.928-.927Zm3.071-1.38c.29-.045.54.187.54.48 0 .26-.2.475-.457.52a5.431 5.431 0 0 0-.925.247.541.541 0 0 1-.656-.224.473.473 0 0 1 .229-.685 6.4 6.4 0 0 1 1.27-.337Zm2.078 0c.44.07.864.185 1.269.339.274.103.375.43.228.684a.54.54 0 0 1-.656.224 5.465 5.465 0 0 0-.925-.247.538.538 0 0 1-.455-.52c0-.292.25-.525.54-.48Z"/></symbol>
  <symbol id="icon-large" fill="none" viewBox="0 0 24 24"><path fill="currentColor" d="M8.841 20.932a.524.524 0 0 1 .634-.294c.5.146 1.018.251 1.55.309a.523.523 0 0 1 .473.512c0 .287-.24.517-.525.488a9.946 9.946 0 0 1-1.832-.363.482.482 0 0 1-.3-.652Zm5.684-.294a.524.524 0 0 1 .633.293.482.482 0 0 1-.3.652c-.59.176-1.202.3-1.832.364a.482.482 0 0 1-.527-.486c0-.267.21-.485.474-.514a8.948 8.948 0 0 0 1.552-.309Zm-8.862-1.597a.524.524 0 0 1 .699-.028c.41.331.85.627 1.316.882.233.128.34.409.24.654a.48.48 0 0 1-.672.248 10.02 10.02 0 0 1-1.555-1.039.483.483 0 0 1-.028-.716Zm11.974-.027a.524.524 0 0 1 .697.027.483.483 0 0 1-.026.717c-.483.393-1.004.741-1.555 1.04a.48.48 0 0 1-.67-.249.523.523 0 0 1 .239-.654c.465-.255.905-.55 1.315-.88ZM3.449 16.083a.522.522 0 0 1 .654.239c.255.465.552.905.883 1.315a.524.524 0 0 1-.029.697.482.482 0 0 1-.716-.027 10.017 10.017 0 0 1-1.04-1.553.48.48 0 0 1 .248-.671Zm16.447.239a.522.522 0 0 1 .653-.24.48.48 0 0 1 .248.671 10.018 10.018 0 0 1-1.039 1.554.481.481 0 0 1-.716.027.523.523 0 0 1-.028-.697c.33-.41.626-.85.882-1.315ZM12 7a.5.5 0 0 1 .5.5v.532a4 4 0 0 1 3.468 3.467h.532a.5.5 0 0 1 0 1h-.532a4 4 0 0 1-3.468 3.468v.533a.5.5 0 0 1-1 0v-.533A3.999 3.999 0 0 1 8.033 12.5H7.5a.5.5 0 1 1 0-1h.533A4 4 0 0 1 11.5 8.032V7.5A.5.5 0 0 1 12 7Zm-9.46 5.5c.265 0 .483.208.512.472.058.533.162 1.052.309 1.553a.523.523 0 0 1-.293.633.481.481 0 0 1-.65-.3 9.952 9.952 0 0 1-.365-1.834.481.481 0 0 1 .486-.524Zm18.92 0c.287 0 .517.24.488.525a9.949 9.949 0 0 1-.365 1.834.483.483 0 0 1-.652.299.523.523 0 0 1-.293-.633c.146-.5.251-1.02.309-1.552a.524.524 0 0 1 .513-.474Zm-12.418 0a3 3 0 0 0 2.458 2.458v-2.459H9.042Zm3.458 0v2.458a3 3 0 0 0 2.457-2.459H12.5Zm0-1h2.457A3.002 3.002 0 0 0 12.5 9.041v2.457Zm-1-2.458a3.002 3.002 0 0 0-2.458 2.457H11.5V9.043Zm-9.084.098a.482.482 0 0 1 .65-.3.524.524 0 0 1 .295.634 8.951 8.951 0 0 0-.308 1.553.523.523 0 0 1-.513.473.482.482 0 0 1-.487-.525c.064-.63.187-1.244.363-1.835Zm18.516-.3c.265-.11.57.025.651.3.176.59.3 1.204.365 1.834a.482.482 0 0 1-.488.525.523.523 0 0 1-.513-.472 8.967 8.967 0 0 0-.309-1.552.525.525 0 0 1 .294-.635ZM4.24 5.691a.483.483 0 0 1 .716-.027c.189.188.196.49.029.698-.331.41-.628.85-.883 1.315a.522.522 0 0 1-.654.24.482.482 0 0 1-.249-.671c.299-.552.648-1.072 1.04-1.555Zm14.801-.026a.483.483 0 0 1 .717.027c.392.482.74 1.003 1.038 1.554a.482.482 0 0 1-.248.672.522.522 0 0 1-.653-.24 9.012 9.012 0 0 0-.882-1.315.524.524 0 0 1 .028-.698ZM7.246 3.2a.481.481 0 0 1 .671.248.523.523 0 0 1-.239.654 9.02 9.02 0 0 0-1.315.882.523.523 0 0 1-.698-.028.482.482 0 0 1 .027-.717 10.026 10.026 0 0 1 1.554-1.04Zm8.836.248a.481.481 0 0 1 .671-.248 9.997 9.997 0 0 1 1.554 1.039c.223.18.23.514.027.717a.523.523 0 0 1-.697.028c-.41-.33-.85-.626-1.315-.882a.523.523 0 0 1-.24-.654Zm-3.058-1.396c.63.065 1.244.187 1.835.364a.482.482 0 0 1 .299.65.523.523 0 0 1-.632.294 8.963 8.963 0 0 0-1.554-.309.523.523 0 0 1-.473-.512c0-.286.24-.516.525-.487Zm-2.05 0c.286-.029.525.2.525.487a.522.522 0 0 1-.471.512 8.96 8.96 0 0 0-1.554.309.523.523 0 0 1-.633-.294.482.482 0 0 1 .299-.651 9.953 9.953 0 0 1 1.835-.363Z"/></symbol>
  <use href="#icon"/>
</svg>
